<svg id="Capa_1" data-name="Capa 1" xmlns="http://www.w3.org/2000/svg" viewBox="0 0 3000 3000"><defs><style>.cls-1{fill:#7a4ba1;}.cls-2{fill:#fff;}.cls-3{fill:#f7f5fa;}.cls-4{fill:#9c7abb;}.cls-5{fill:#7b4ca4;}.cls-6{fill:#c0a9d3;}</style></defs><circle class="cls-1" cx="1500" cy="1500" r="2121.32"/><path class="cls-2" d="M840.84,924c1.44-3.17.77-6.55.78-9.83,0-64.67,0-129.33.08-194,0-15.67-5.39-28.22-17.66-38.35a86,86,0,0,0-48.09-20c-14.12-1.3-11.5-1-11.59-12.9-.15-19.33,0-38.66-.09-58,0-4.55,1.29-6.76,6.29-6.4,34.87,2.46,68.85,8.16,99.27,27a253.38,253.38,0,0,1,48.94,39.4,78.3,78.3,0,0,1,19.52,34.38,146.6,146.6,0,0,1,5.54,39.25q-.3,375-.11,750c0,15.88-2.11,13.73,13.76,13.77,38.67.11,77.33,0,116,0,2.33,0,4.67-.1,7,0,3.89.13,5.32-1.85,5.16-5.53-.11-2.66,0-5.33,0-8q0-380.49.23-761c0-28.83,9.66-54.81,32.07-74.87,43.87-39.28,94.44-58.81,153.82-53.49a281.7,281.7,0,0,1,44.31,7.31c39.23,9.95,70,33.24,97.16,62.11,7.89,8.4,12.77,18.63,15.85,29.72a137.51,137.51,0,0,1,5.42,37.29q-.32,376.5-.13,753c0,14.88-1.87,13.44,13.2,13.46q55.5.09,111,0c2,0,4-.14,6,0,4.9.4,7.71-1.15,7.1-6.68a62.66,62.66,0,0,1,0-7q0-380.51.24-761c0-28.43,9.45-54.16,31.4-74.16,41.29-37.65,89.38-57.53,145.56-54.94,34.54,1.59,68.17,8,98.34,26.5a251.8,251.8,0,0,1,49.74,40,78.64,78.64,0,0,1,19.42,34.43,145.94,145.94,0,0,1,5.47,39.27q-.28,374.49-.1,749c0,17-2.44,14.46,15,14.53,36.34.14,72.67,0,109,0,2.34,0,4.68-.17,7,0,4.48.34,5.86-1.92,5.62-6-.16-3,0-6,0-9q0-379,.23-758c0-29.89,10.1-56.62,33.36-77.41,32.52-29.08,69.92-47.14,113.35-52.29,8.91-1.06,9-.84,9.07,7.68.06,20.66-.14,41.33.13,62,.07,5.51-1.19,8.42-7.17,9.52-9.29,1.72-17.38,6.67-25.18,11.83-14.73,9.74-22,23.26-21.86,41.22.3,47.66.1,95.33.1,143,0,17.33,0,34.66.05,52,0,3.23-.82,6.62,1.21,10.21,10.59-2.2,20.79-6.46,31.66-7.86,4.95-.64,9.94-1.07,14.85-2,5.14-1,6.42,1.34,6.28,6-.22,7-.05,14-.05,21,0,14,0,28,0,42,0,8.38-.08,8.4-7.93,10.73a86.51,86.51,0,0,0-32,17.91c-9.23,7.94-13,18.28-14,29.93-.21,2.31-.05,4.66-.05,7q0,214,0,428c0,13.45-1.6,12.53,12.12,12.57,11,0,22,.23,33-.07,5.26-.14,7,1.83,6.92,6.94q-.22,44.5,0,89c0,4.91-1.9,6.56-6.5,6.19-2.65-.22-5.33,0-8,0q-706,0-1412,0c-16.42,0-14.14,2.22-14.23-14.31-.13-26-.06-52,0-78,0-9.61.09-9.65,10-9.67,17.33,0,34.67.05,52,0,7.72,0,7.74-.2,7.94-7.72.07-2.66,0-5.33,0-8,0-139.33-.56-278.67.42-418,.23-32.08-16.29-48.67-45.23-60.42-8-3.26-16.8-4.23-25.47-4.7-5.42-.3-7.23-2.66-7.16-8.12.28-20.33,0-40.66.14-61,0-8,.36-8.19,8.79-7.6,20.33,1.41,40.41,4.26,60,10.28a57.22,57.22,0,0,0,5.81,1.42A5.31,5.31,0,0,0,840.84,924Z"/><path class="cls-2" d="M1492.47,387.66q353,0,706,0c16,0,13.82-2.08,13.9,13.64.12,26.66.07,53.33,0,80,0,8.18-.16,8.19-8.33,8.35-2.34.05-4.67,0-7,0q-705,0-1409.91,0c-17.68,0-15.31,2.56-15.4-15.25-.13-26.33-.07-52.66,0-79,0-7.54.18-7.56,7.83-7.73,3-.06,6,0,9,0Z"/><path class="cls-3" d="M2348.3,2207.85V1969.9c0-2.67-.07-5.34,0-8,.25-7.47.28-7.66,8.13-7.68,33.33,0,66.66-.24,100,.15a136.46,136.46,0,0,1,44.13,7.6c22.94,8.1,38.12,23.61,45.6,46.81,4.64,14.4,6.52,29.23,7.53,44.21.33,5,.32,10,.32,15q0,149.46.06,298.93c0,13.83-1.78,27.28-7.08,40.07-14.59,35.19-42,53-79.09,54.48-37.61,1.46-75.31.41-113,.57-4.49,0-7-1.29-6.65-6.24.2-2.65,0-5.33,0-8Z"/><path class="cls-3" d="M1465.85,2207.74v-237.9c0-2.66-.07-5.33,0-8,.23-7.44.25-7.61,8.11-7.63,33-.06,66-.28,99,.13,16.7.2,33.14,2.8,48.83,9.14,19.67,7.94,33.11,21.74,40.43,41.68,7.22,19.71,9.12,40.26,9.17,60.95q.29,142.44.08,284.87c0,10,.41,20-.8,30-5.76,47.55-37.41,78.54-85.46,80.53-37.59,1.56-75.29.39-112.93.57-4.7,0-6.75-1.7-6.42-6.41.19-2.66,0-5.33,0-8Z"/><path class="cls-3" d="M1725.49,2207q0-85,0-169.94c0-9,.2-17.93,1.83-26.87,4.94-27,20.69-45.62,45.43-55.42,37.45-14.84,75.34-14.64,112.85,1.18,27.84,11.74,41.15,33.57,44.32,62.58a184.6,184.6,0,0,1,1,20q.09,169.93,0,339.89c0,13-1,26-4.93,38.5-5.58,17.65-16.08,31.18-32.76,39.72-39.91,20.43-80.94,21-121.75,4.45-28.36-11.52-43.27-34.42-45.53-65.12-.44-6-.47-12-.47-18Q1725.45,2292.44,1725.49,2207Z"/><path class="cls-3" d="M1024.59,2462c-11,0-22-.2-33,.09-5.2.13-6.92-2.1-7.42-6.95-3.3-32.13-6.8-64.23-10.25-96.35-1-9.6-2.21-19.19-3.15-28.8-.39-4.07-2.25-5.77-6.4-5.73-14.66.13-29.32.17-44,0-5-.06-6,2.58-6.51,6.76-3.2,26.78-6.56,53.54-9.9,80.3-1.85,14.87-3.92,29.71-5.55,44.6-.52,4.66-2.46,6.2-7,6.16-19.32-.15-38.65,0-58-.1-6.79,0-7-.28-6.21-6.74q4.63-40.7,9.46-81.37,6.57-55.55,13.23-111.08,7.54-63.48,15-127,8.5-71.92,17-143.84c1.21-10.25,2.84-20.46,3.62-30.75.43-5.73,3-7.11,8.2-7.09,34.32.16,68.63,0,102.95.11,7.51,0,7.73.16,8.66,7.69,2.3,18.51,4.34,37,6.53,55.56q8.63,72.91,17.3,145.81,7.46,63,14.82,126,8.49,71.91,17.07,143.82c.86,7.28,1.91,14.53,2.6,21.82.61,6.47.23,6.93-6.18,7C1046.58,2462.11,1035.58,2462,1024.59,2462Z"/><path class="cls-3" d="M547.77,2350c4.84-55.75,9.29-111.55,14.61-167.26,5.2-54.37,11.31-108.66,17-163,2-18.89,3.72-37.8,5.83-56.67,1-8.72,1.25-8.79,9.46-8.82q30.5-.11,61,0c8.91,0,9.12.21,8.06,9-3.45,28.77-7.06,57.53-10.59,86.29q-8.64,70.41-17.26,140.84-8.55,69.42-17.17,138.83-7.44,60.49-14.74,121c-.16,1.32-.23,2.66-.43,4-1.14,7.65-1.15,7.77-9.58,7.78q-51,.08-102,0c-8,0-8.28-.12-9.27-8.09-2.33-18.84-4.41-37.71-6.61-56.57q-8.62-74-17.28-147.88-8.46-72.46-16.87-144.92-7.46-64-15-128c-.66-5.62-1.13-11.27-2-16.87-.62-4.06,1.09-5.43,4.87-5.42,22.66,0,45.33.09,68,0,5.24,0,5.69,3.23,6.13,7.13q5,44.68,10.21,89.35c4.14,36.07,8.12,72.16,12.47,108.21,4.08,33.75,6.49,67.64,9.41,101.49,2.63,30.53,4.42,61.14,8.1,91.57a5.05,5.05,0,0,1,1.75,2.89c0-.2.14-.13.14-.29A13.3,13.3,0,0,1,547.77,2350Z"/><path class="cls-3" d="M1104.4,2208q0-119,0-238c0-2,0-4,0-6,.1-9.8.1-9.87,9.93-9.89,20.33,0,40.66-.08,61,0,7.75,0,7.78.22,8,7.81.1,3,0,6,0,9q0,205.46,0,410.91c0,15.8-1,13.73,14.07,13.79,25.66.1,51.32,0,77,.05,8.89,0,9,.14,9.06,8.74q.13,24,0,48c0,9.36-.12,9.46-9.33,9.47q-61.5.08-123,0c-13,0-26,.09-39,0-7.57-.07-7.59-.23-7.8-8-.07-2.66,0-5.33,0-8Q1104.4,2327,1104.4,2208Z"/><path class="cls-3" d="M1987.42,2208V1966.18c0-13.32-.24-12,11.85-12q28-.08,56,0c10.63,0,10.64.06,10.68,11.12,0,2.66,0,5.33,0,8q0,204.85,0,409.71c0,14.16-1.21,12.69,13,12.73,25.65.06,51.29,0,76.94,0,10,0,10.11.08,10.14,9.61q.08,24,0,48c-.05,8.43-.16,8.62-8.09,8.63q-81.45.08-162.89,0c-7.23,0-7.3-.27-7.6-7.14-.11-2.66,0-5.33,0-8Z"/><path class="cls-3" d="M1326.21,2206.88v-235.8c0-2.33,0-4.66,0-7,.1-9.8.1-9.87,9.93-9.89q30.46-.08,60.95,0c7.67,0,7.69.2,8,7.81.07,2,0,4,0,6q0,239.79,0,479.59c0,16.86,1.21,14.22-14.43,14.35-19,.15-38,.11-57,0-7.16-.05-7.19-.26-7.46-7.29-.1-2.66,0-5.33,0-8Z"/><path class="cls-3" d="M782,2208.44v237.9c0,2.67.06,5.34,0,8-.23,7.32-.25,7.56-7.12,7.6q-32,.2-64,0c-7.11,0-7.2-.31-7.5-7.28-.11-2.33,0-4.66,0-7q0-239.4,0-478.8c0-16.8-1.28-14.58,14.19-14.67q28.49-.17,57,0c7.14,0,7.17.26,7.44,7.32.1,2.66,0,5.33,0,8Z"/><path class="cls-3" d="M2287.81,2208.09q0,120.94,0,241.89c0,12.88,1,12-11.77,12-19.66,0-39.32.08-59,0-7.61,0-7.64-.25-7.93-7.93-.08-2.33,0-4.67,0-7q0-238.89,0-477.79c0-17.34-1.21-14.92,14.89-15,18.33-.12,36.65-.08,55,0,8.66,0,8.79.15,8.8,9q.08,67.47,0,134.94Z"/><path class="cls-4" d="M544.24,2359.86l-.09-8c1.21-.65,2.42-1.3,3.62-2,0,3.3,0,6.6,0,9.89C546.57,2361.2,545.41,2361.2,544.24,2359.86Z"/><path class="cls-5" d="M1187.67,1260.1c0-71.28.29-142.56-.19-213.83-.14-19.9,8.35-33.6,24.64-43.58,35.2-21.56,78.37-16.81,107.65,11.49,8.22,7.94,11.84,17.44,12.54,28.45.1,1.66,0,3.33,0,5q0,214.33,0,428.67c0,13.22,1.32,12-11.54,12q-60.94.06-121.9,0c-2,0-4-.13-6,0-3.89.22-5.37-1.67-5.2-5.39.12-2.66,0-5.33,0-8Z"/><path class="cls-5" d="M1674.34,1259.88c0-71,.23-141.91-.15-212.86-.11-20.1,8.35-34.27,25.11-44.44,34.87-21.16,77.79-16.32,106.7,11.83,7.92,7.72,11.42,16.95,12.29,27.55.19,2.32,0,4.66,0,7q0,213.38,0,426.73c0,14.3,1.66,12.6-12.93,12.63-39.64.08-79.28,0-118.92,0-2.33,0-4.67-.1-7,0-3.92.13-5.28-1.93-5.13-5.57.11-2.66,0-5.33,0-8Z"/><path class="cls-5" d="M1332.33,925.26c-48.76-14.24-96.15-19-143.41-1.71-1.83-4.16-1.22-7.54-1.22-10.83,0-65,.22-129.92-.2-194.88-.11-18.09,7.11-31.23,21.58-41.29,32.11-22.34,79.2-19.93,108.15,7.16,10.23,9.58,15.16,20.59,15.14,34.38q-.12,91.44,0,182.89Z"/><path class="cls-5" d="M1675.31,922c-1.8-3-.93-6.4-.93-9.62-.06-64.63.14-129.26-.16-193.89-.09-18.32,7.22-31.84,22.11-42.12,31.34-21.65,78.57-20,107.92,8.29,9.56,9.22,14.12,19.82,14.1,32.82q-.07,44,0,88V911.38c0,2.33.08,4.67,0,7-.28,6.12-.62,6.53-6.34,4.85a271.69,271.69,0,0,0-34.06-7.66c-32.69-5.21-65-4.92-96.67,6C1679.39,922.16,1677.46,923,1675.31,922Z"/><path class="cls-5" d="M2427.18,2207.46q0-88.47,0-176.94c0-3,.17-6,0-9-.26-4.68,1.77-6.68,6.47-6.5,7,.27,14-.43,21,.48,10.13,1.31,16.42,6.9,18.68,16.76a89,89,0,0,1,2.16,19.82q0,155.94,0,311.88a100.94,100.94,0,0,1-1.87,18.87c-2,10.3-8.21,16.42-18.68,18.1-7.63,1.23-15.29.44-22.94.54-3.4,0-4.67-2-4.71-5.1s-.08-6-.08-9Q2427.17,2297.42,2427.18,2207.46Z"/><path class="cls-5" d="M1544.34,2208.18V2028.39c0-2.66.07-5.33.05-8,0-3.13,1.26-5.18,4.59-5.22,8.64-.08,17.33-1,25.89.88a19.06,19.06,0,0,1,14.87,13.31,46.88,46.88,0,0,1,2.5,14.71c.08,10.32.2,20.64.2,31q0,142.34,0,284.67c0,7.64.35,15.33-1.47,22.86-2.86,11.79-8.42,17.25-20.41,18.58-6.91.77-14,.26-20.94.38-3.84.06-5.35-1.92-5.25-5.57.07-2.66,0-5.33,0-8Z"/><path class="cls-5" d="M1852.15,2209q0,85,0,169.95c0,6.35-.12,12.65-2,18.8-2.17,7-6.68,11.27-13.87,12.88a36.64,36.64,0,0,1-15.84,0c-7.61-1.61-12.37-6.06-14.42-13.53a62.76,62.76,0,0,1-2-16.82q0-171.95,0-343.9a60.92,60.92,0,0,1,1.67-15.85c2.58-9.68,7.35-14,17.36-15.19a45.57,45.57,0,0,1,9-.21c10.92.86,16.06,5.4,18.79,16,1.43,5.57,1.34,11.23,1.34,16.89Q1852.17,2123.55,1852.15,2209Z"/><path class="cls-5" d="M941.7,2258.05c-5.34-.51-13.11,2.57-17.51-1.31-4.86-4.28-.6-11.95-.09-18,3.44-40.81,7.38-81.57,11.09-122.35,1.78-19.56,3.35-39.14,5.2-58.7.32-3.41-.64-9.35,3.18-9.37,5.24,0,3.48,6.16,3.76,9.59,3.74,46.46,7.21,93,10.76,139.43,1.31,17.26,2.79,34.51,3.95,51.78.59,8.75.34,8.79-8.43,8.92C950,2258.1,946.28,2258.05,941.7,2258.05Z"/><path class="cls-6" d="M544.24,2359.86l3.49,0c.21,1.57.42,3.79-1.24,4C543.69,2364.18,544.27,2361.63,544.24,2359.86Z"/></svg>